<?xml version="1.0" standalone="no"?><!DOCTYPE svg PUBLIC "-//W3C//DTD SVG 1.1//EN" "http://www.w3.org/Graphics/SVG/1.1/DTD/svg11.dtd"><svg t="1559121810245" class="icon" style="" viewBox="0 0 1024 1024" version="1.1" xmlns="http://www.w3.org/2000/svg" p-id="1428" xmlns:xlink="http://www.w3.org/1999/xlink" width="200" height="200"><defs><style type="text/css"></style></defs><path d="M428.18827043 823.30358559c-0.25600058-8.72191112 6.87960037-15.85751206 15.60151148-15.60151149 8.47764832-0.25655938 15.61380804 6.87960036 15.86980918 15.8698092l-0.121852 55.11170158c0.12241079 8.8555009-7.14845687 16.12636856-15.85751206 15.85751207-8.74650481 0.01229712-15.74795718-6.98915525-15.85751207-15.85751207L428.18827043 823.30358559 428.18827043 823.30358559zM581.89825848 282.10352599L581.89825848 282.10352599c38.32688557 38.32688557 38.20503356 100.31818697-0.12185201 138.64507253s-100.45233555 38.58288616-138.77922112 0.25600058c-38.04684952-38.04684952-38.05858786-100.44003844 0.26829772-138.76692399S543.57137291 243.77664042 581.89825848 282.10352599L581.89825848 282.10352599zM465.46599952 304.43819159L465.46599952 304.43819159c-26.03102542 26.03102542-26.15287744 67.9201217 0.01229713 94.08529624 25.90917341 25.90917341 67.79826968 25.7873214 93.82929511-0.24370402 25.90917341-25.90917341 26.17747113-67.94471539 0.26829771-93.85388883C533.40959734 278.26072045 491.37517294 278.52901817 465.46599952 304.43819159L465.46599952 304.43819159zM409.56114313 760.78742655L409.56114313 760.78742655c-14.39417149-14.39417149-27.75092592-29.33723553-40.29048952-45.58489731-4.25699017-5.81870664-8.7336489-11.36855622-12.83301439-17.32252955l-2.37890616 5.55040891c-5.41514168 12.83245558-8.45305407 26.70288757-8.98909125 41.24294596-0.64670911 14.40590983-12.82071724 25.77502429-27.21432996 25.38431632-3.0373536-0.4024463-5.69685463-0.670744-8.07520146-1.73219708-34.75237774-11.50326413-64.479763-33.83792973-85.48579538-62.77215961-20.88306334-28.81237844-32.93521948-63.57705277-32.91118458-101.63564063l0 0 0 0c-0.41474342-34.76467487 10.17295403-67.26111547 27.59218255-94.48774255 15.07665384-23.00596894 35.16767994-42.04727977 59.10095281-56.17315411l-0.01229657-6.86730323-0.24370346-0.80489313-0.28059484 0.28059483c0.25600059-80.10586764 21.82266385-155.83289362 59.3446563-220.84981085 38.70529697-67.54170978 94.74430247-123.58071528 162.29775056-162.29775056 8.46535119-5.02555128 18.49297762-4.75725356 26.55588251-0.13414858l0.26829772 0.2682977 0.13414859 0.13414859c67.12696689 38.85174266 123.04300227 94.76777806 161.76115514 162.02945231 37.41187876 64.8822093 59.21050771 140.86579522 59.07635857 220.82521715l0.13414858 2.52535187-0.25600059 5.01381296c23.92041697 13.62449282 44.13329509 33.03247725 59.07635858 56.17315409 17.44382222 26.95832936 27.73806947 59.47768785 27.61621801 94.24347974l0.01341523 2.11060847c-0.54945134 36.99769358-12.55242007 71.49407074-32.80162967 99.64800119-21.39618265 29.08067616-51.26945482 51.53775201-86.55898626 63.30875505-13.47916468 4.50125299-28.54352139-3.17150274-33.16662636-16.79711258-0.670744-2.23246047-1.18330453-4.8914027-1.20789823-7.52630945-0.51200119-14.27231948-3.54991413-28.40993161-8.84432192-41.12053573l-2.50019883-5.6717016c-4.09824734 5.95285522-8.60005911 12.03985902-12.95542516 17.71100238-12.82015846 16.79767136-26.95721179 32.25273714-41.90027529 46.92750346-5.01325416 5.01325416-11.47811055 7.52630946-18.10171087 7.78231006l0 0L429.38331276 770.31367202C421.4674129 770.05767143 414.45254583 766.75202009 409.56114313 760.78742655L409.56114313 760.78742655zM410.87915612 683.35223894L410.87915612 683.35223894c9.27024488 11.88167552 19.17546052 23.39667743 29.361271 34.09448909l144.45148151 0.12185202c10.30766249-10.81966366 19.95631821-22.32292725 29.19023049-34.21634111 11.12485275-14.5400584 21.68851527-29.88612754 30.53227839-46.12149276 1.32975078-2.37834739 3.17150274-4.75781235 5.29440779-6.61130264 10.44181106-9.92980988 27.36077619-9.38035854 37.1318427 1.46389882 13.88161152 14.93020813 24.86001802 32.22814343 32.92348171 51.39130629 2.50075819 6.74545178 5.01325416 14.0157601 6.98971402 21.28551018 12.30759794-7.79460717 23.00596894-17.97985832 31.33661221-30.26342135 14.00346299-19.56616903 22.57892839-43.21884651 22.99367181-69.24931368l-0.14588693-1.46389937c0.28003551-24.31056614-7.25857053-46.92638535-19.40798497-65.68710244-12.44230586-19.81043128-30.80057557-35.29009075-52.34264514-44.92644988-9.25850654-3.96409876-15.72392172-14.13761211-15.07721317-25.10372149l0.25655992-11.38085334-0.10955489-9.38035801-0.01229656-1.32919144c0.2688565-71.09162444-18.89430689-137.82844106-51.80605025-194.52589347-31.58087501-54.85570044-76.37317631-101.76978921-130.17972081-135.47412858-53.39180108 33.82619138-97.80624977 80.36130998-129.6554225 135.1935343-33.03303602 57.37993475-51.94075762 124.10389601-51.94019884 194.95293454l-0.14644625 10.17295457-0.121852 0.12185201 0.54889255 10.57540087c0.90270969 10.9784065-4.7578129 21.68851528-15.34495156 26.17747112-21.53033123 9.64921505-39.65775392 25.6280198-52.07434797 44.92644989-12.40541504 18.77301368-19.5538719 41.51068489-19.56616846 65.82181036l-0.12185201-0.12185201c0.00055878 26.68947231 8.33176139 50.87818753 23.12782093 70.96977243 8.19705401 11.63685393 18.89486513 22.06636787 31.20302241 30.12983156 2.09775255-7.41675457 4.35480672-14.67420755 7.12330383-21.42021757 7.92875576-19.02957358 19.02901426-35.93735864 32.37458914-51.13530624 1.98819767-1.98819767 4.37884163-4.11054447 7.01263085-5.16025919 12.43056751-7.67163759 28.54463951-2.65838344 35.6685021 9.78336363C389.61712207 653.08881759 399.92422521 668.69032852 410.87915612 683.35223894L410.87915612 683.35223894zM565.51588932 823.18117479L565.51588932 823.18117479c-0.12185201-8.58776253 6.87959981-15.58921436 15.60151147-15.60151147 8.86835681-0.13414913 15.86980918 6.86730324 15.72336294 15.72336293l0.01229712 55.51414787c-0.1464457 8.58776197-7.14789807 15.58921436-15.58921435 15.58921437-8.73420823 0.26829772-16.13866569-7.13615975-15.72336294-15.72336295L565.51588932 823.18117479 565.51588932 823.18117479zM496.65728413 823.04702566L496.65728413 823.04702566c-0.00055878-8.46535173 7.00145183-15.46736235 15.60151149-15.60151147 9.00250594 0 16.00395778 7.00145183 15.86980919 15.86980919L528.23760036 949.26264825c0.01229658 8.72191112-6.98915525 15.72336293-15.58921435 15.58921436-9.11206083 0.13414913-16.12580978-6.87959981-15.85751207-15.85751207L496.65728413 823.04702566 496.65728413 823.04702566z" fill="#35aef8" p-id="1429"></path></svg>